<?xml version="1.0" standalone="no"?>
<!DOCTYPE svg PUBLIC "-//W3C//DTD SVG 20010904//EN"
 "http://www.w3.org/TR/2001/REC-SVG-20010904/DTD/svg10.dtd">
<svg version="1.0" xmlns="http://www.w3.org/2000/svg"
 width="256.000000pt" height="256.000000pt" viewBox="0 0 256.000000 256.000000"
 preserveAspectRatio="xMidYMid meet">

<g transform="translate(0.000000,256.000000) scale(0.100000,-0.100000)"
fill="#000000" stroke="none">
<path d="M107 2542 c-21 -23 -22 -80 -1 -103 8 -9 94 -50 189 -90 l174 -73 3
-810 3 -811 24 -53 c30 -66 105 -135 171 -157 l49 -16 -15 -41 c-22 -64 -18
-164 10 -223 28 -62 97 -126 158 -150 60 -22 176 -18 233 10 54 26 113 87 138
144 27 60 29 180 4 229 l-18 32 311 0 c171 0 310 -4 310 -9 0 -5 -7 -26 -16
-47 -36 -85 -5 -214 69 -292 58 -61 100 -77 207 -77 107 0 149 16 207 77 139
147 97 380 -86 470 l-46 23 -732 5 c-719 5 -732 5 -759 26 -60 44 -67 65 -72
190 l-5 116 34 -19 c32 -17 78 -18 803 -21 854 -3 820 -5 909 63 30 23 56 55
76 96 l31 62 0 352 c0 331 -1 353 -19 369 -14 13 -206 42 -887 136 -478 66
-883 122 -901 125 l-31 6 -4 139 c-2 109 -6 143 -19 155 -25 26 -415 185 -452
185 -20 0 -41 -7 -50 -18z m1363 -732 c443 -61 815 -112 828 -115 l22 -5 0
-284 c0 -277 0 -284 -22 -316 -13 -18 -39 -41 -58 -52 -33 -17 -69 -18 -777
-16 -736 3 -742 3 -770 24 -15 12 -37 36 -48 55 -19 32 -20 55 -23 432 l-3
398 23 -6 c13 -3 385 -54 828 -115z m-421 -1409 c45 -31 66 -69 65 -115 -3
-122 -145 -180 -231 -93 -115 115 35 302 166 208z m1121 7 c74 -39 100 -119
60 -186 -70 -115 -235 -83 -257 51 -8 50 28 111 81 137 52 25 62 25 116 -2z"/>
</g>
</svg>
